<svg width="64" height="64" viewBox="0 0 64 64" fill="none" xmlns="http://www.w3.org/2000/svg">
  <rect x="6" y="6" width="52" height="52" rx="18" fill="#2D180D"/>
  <path d="M20 39H44C45.1046 39 46 39.8954 46 41V46C46 48.2091 44.2091 50 42 50H22C19.7909 50 18 48.2091 18 46V41C18 39.8954 18.8954 39 20 39Z" fill="#FFF7EB"/>
  <path d="M24 35H40C41.1046 35 42 35.8954 42 37C42 38.1046 41.1046 39 40 39H24C22.8954 39 22 38.1046 22 37C22 35.8954 22.8954 35 24 35Z" fill="#FFF7EB" fill-opacity="0.78"/>
  <path d="M27 27H37C38.1046 27 39 27.8954 39 29C39 30.1046 38.1046 31 37 31H27C25.8954 31 25 30.1046 25 29C25 27.8954 25.8954 27 27 27Z" fill="#FFF7EB" fill-opacity="0.78"/>
  <path d="M32 14C36 19 39 23 39 28C39 33 35.8 36.4 32 36.4C28.2 36.4 25 33 25 28C25 24.3 26.7 20.9 30.1 17.3C30.9 16.5 31.5 15.5 32 14Z" fill="url(#paint0_linear_316_4)"/>
  <path d="M33 20C35 22.5 36.3 24.7 36.3 27C36.3 29.6 34.7 31.6 32 32.5C33 31.6 33.6 30.3 33.6 28.7C33.6 27.1 32.8 25.3 31.2 23.2C32 22.4 32.6 21.3 33 20Z" fill="#FFD27A"/>
  <defs>
    <linearGradient id="paint0_linear_316_4" x1="24.6462" y1="13.6667" x2="39.1377" y2="36.4" gradientUnits="userSpaceOnUse">
      <stop stop-color="#F49B38"/>
      <stop offset="1" stop-color="#C53D1B"/>
    </linearGradient>
  </defs>
</svg>
